<?xml version="1.0" encoding="UTF-8" standalone="no"?>
<!-- Created with Inkscape (http://www.inkscape.org/) -->

<svg
   width="207.85339mm"
   height="212.0607mm"
   viewBox="0 0 207.85339 212.0607"
   version="1.1"
   id="svg1"
   xml:space="preserve"
   inkscape:version="1.3.1 (9b9bdc1480, 2023-11-25, custom)"
   sodipodi:docname="logo.svg"
   xmlns:inkscape="http://www.inkscape.org/namespaces/inkscape"
   xmlns:sodipodi="http://sodipodi.sourceforge.net/DTD/sodipodi-0.dtd"
   xmlns="http://www.w3.org/2000/svg"
   xmlns:svg="http://www.w3.org/2000/svg"><sodipodi:namedview
     id="namedview1"
     pagecolor="#ffffff"
     bordercolor="#000000"
     borderopacity="0.25"
     inkscape:showpageshadow="2"
     inkscape:pageopacity="0.0"
     inkscape:pagecheckerboard="0"
     inkscape:deskcolor="#d1d1d1"
     inkscape:document-units="mm"
     inkscape:zoom="1.0868961"
     inkscape:cx="382.28126"
     inkscape:cy="400.68228"
     inkscape:window-width="2510"
     inkscape:window-height="1371"
     inkscape:window-x="50"
     inkscape:window-y="32"
     inkscape:window-maximized="1"
     inkscape:current-layer="layer1" /><defs
     id="defs1" /><g
     inkscape:label="Layer 1"
     inkscape:groupmode="layer"
     id="layer1"
     transform="translate(-0.27483167,-2.8325584)"><rect
       style="vector-effect:non-scaling-stroke;fill:#e5ff44;fill-opacity:1;stroke:none;stroke-width:0.264583;-inkscape-stroke:hairline"
       id="rect2"
       width="183.83772"
       height="184.75897"
       x="9.7677469"
       y="14.452851" /><path
       style="fill:#000000"
       d="M 23.429211,213.83557 C 12.319378,210.43918 2.438871,199.11529 0.817349,187.9205 0.32877,184.54741 0.133717,146.55637 0.383898,103.49598 0.882546,17.670433 0.481078,21.494955 9.989743,11.986296 19.562608,2.4134317 15.206152,2.8353267 104.48198,2.8353267 c 89.27583,0 84.91937,-0.421895 94.49224,9.1509693 9.58696,9.586966 9.15097,4.978313 9.15097,96.729124 0,91.75082 0.43599,87.14217 -9.15097,96.72913 -9.53208,9.53207 -5.54334,9.12475 -92.25534,9.421 -43.470493,0.14852 -80.950845,-0.31497 -83.289669,-1.02998 z m 39.687202,-31.67559 c 8.736853,-6.66392 10.048914,-11.38133 10.048914,-36.1301 0,-21.88556 0,-21.88556 4.359089,-26.24465 4.3591,-4.3591 4.3591,-4.3591 23.975024,-4.3591 19.61593,0 19.61593,0 23.97502,4.3591 4.3591,4.35909 4.3591,4.35909 4.38363,26.47002 0.0223,20.11479 0.32523,22.63935 3.35535,27.96413 6.05242,10.63581 22.05389,15.90641 32.26326,10.62694 2.29811,-1.1884 6.29121,-4.56711 8.87356,-7.50824 4.69518,-5.34751 4.69518,-5.34751 4.6896,-72.0299 -0.005,-63.564319 -0.14204,-66.906213 -2.92403,-71.468868 -9.36209,-15.354431 -34.65898,-13.881841 -42.92692,2.498873 -3.04561,6.034058 -3.35535,8.762975 -3.35535,29.561137 0,22.913398 0,22.913398 -4.3591,27.272488 -4.35909,4.3591 -4.35909,4.3591 -23.97502,4.3591 -19.615924,0 -19.615924,0 -23.975024,-4.3591 -4.359089,-4.35909 -4.359089,-4.35909 -4.359089,-27.735916 0,-26.438146 -1.193321,-30.866888 -10.159845,-37.705988 -4.499226,-3.431727 -6.712043,-4.016813 -15.19173,-4.016813 -8.514964,0 -10.684691,0.579126 -15.268455,4.075333 -10.073594,7.683504 -10.242943,9.063193 -9.763915,79.546984 0.426429,62.74455 0.426429,62.74455 4.111836,68.12106 5.740374,8.37442 12.601707,11.75236 22.638818,11.14542 6.288634,-0.38028 9.738092,-1.5082 13.584377,-4.44191 z M 39.8429,167.87594 c -2.211047,-2.44318 -2.468032,-9.01848 -2.468032,-63.1478 0,-56.640653 0.170614,-60.575063 2.727144,-62.888691 3.106905,-2.81171 8.060453,-3.184446 12.283585,-0.924294 2.780501,1.488078 2.8845,3.769328 2.8845,63.272405 0,54.12862 -0.288523,62.0172 -2.343423,64.0721 -3.164164,3.16417 -10.055899,2.96204 -13.083774,-0.38372 z m 110.22931,0.38372 c -2.05391,-2.05391 -2.34342,-9.87078 -2.34342,-63.27241 0,-66.938987 -0.18088,-65.615833 8.96957,-65.615833 8.85291,0 8.92566,0.534803 8.92566,65.615833 0,50.97438 -0.31535,59.43734 -2.32147,62.30148 -2.75682,3.93592 -9.752,4.44927 -13.23034,0.97093 z"
       id="path2" /></g></svg>
