<svg width="580" height="72" viewBox="0 0 580 72" fill="none" xmlns="http://www.w3.org/2000/svg">
<g clip-path="url(#clip0_6_641)">
<path d="M0.824922 1.07031L0.794922 70.0703H14.7949L14.8049 1.07031H0.824922Z" fill="#FFF5D9"/>
<path d="M16.5947 36.8803L41.2547 1.07031H58.2447L33.1647 36.8803L61.2447 70.0703H42.9947L16.5947 36.8803Z" fill="#FFF5D9"/>
<path d="M119.885 1.07031H105.765V70.0703H119.885V1.07031Z" fill="#FFF5D9"/>
<path d="M173.185 1.07031V70.0703H186.775V26.8303L224.045 70.0703H234.825V1.07031H221.325V45.6803L183.445 1.07031H173.185Z" fill="#FFF5D9"/>
<path d="M342.465 8.86C333.025 0.15 321.645 0 318.535 0C315.475 0 303.575 0.22 294.005 9.52C283.845 19.4 283.805 32.24 283.795 35.66C283.785 39.3 283.895 49.03 290.805 57.99C300.855 71.02 316.695 71.31 318.535 71.32C321.375 71.32 334.185 71 343.965 60.66C353.065 51.04 353.265 39.4 353.275 35.66C353.275 32.49 353.305 18.86 342.455 8.86H342.465ZM318.435 58.01C307.095 58.01 297.895 47.95 297.895 35.54C297.895 23.13 307.085 13.07 318.435 13.07C329.785 13.07 338.975 23.13 338.975 35.54C338.975 47.95 329.785 58.01 318.435 58.01Z" fill="#FFF5D9"/>
<path d="M450.495 12.0802C444.975 5.46023 437.135 0.990234 427.955 0.990234C417.555 0.990234 405.295 1.07023 402.295 1.07023V69.9802C405.285 69.9802 417.555 70.0602 427.955 70.0602C445.525 70.0602 458.445 53.4102 459.065 36.8602C459.395 28.0102 456.185 18.9002 450.495 12.0802ZM440.085 49.9502C436.895 53.8702 432.705 56.6902 427.665 57.5602C424.025 58.1902 420.095 57.8302 416.405 57.8302C416.405 50.4002 416.405 42.9802 416.405 35.5502V13.2202C423.795 13.2202 430.525 12.7002 436.605 17.6002C440.275 20.5602 442.925 24.7102 444.165 29.2402C444.525 30.5402 444.765 31.8802 444.875 33.2302C445.395 39.3702 443.995 45.1402 440.085 49.9502Z" fill="#FFF5D9"/>
<path d="M508.135 0.990234V70.0602H552.715V57.9302H522.035V40.4202H547.125V28.0702H521.995V13.3202H552.715V0.990234H508.135Z" fill="#FFF5D9"/>
<path d="M574.835 66.0398H572.745L571.015 63.0698H569.845V66.0398H567.805V57.5498H571.765C572.845 57.5498 573.865 57.9298 574.425 58.9398C575.205 60.3698 574.665 62.3798 573.105 63.0298C573.725 64.1198 574.225 64.9498 574.845 66.0398H574.835ZM570.375 61.0798H570.845C571.335 61.0798 572.365 61.0798 572.365 60.2898C572.365 59.5598 571.335 59.5598 570.845 59.5598H570.375V61.0798Z" fill="#FFF5D9"/>
<path d="M570.964 69.0002C574.913 69.0002 578.114 65.799 578.114 61.8502C578.114 57.9014 574.913 54.7002 570.964 54.7002C567.016 54.7002 563.814 57.9014 563.814 61.8502C563.814 65.799 567.016 69.0002 570.964 69.0002Z" stroke="#FFF5D9" stroke-width="2.2" stroke-miterlimit="10"/>
</g>
<defs>
<clipPath id="clip0_6_641">
<rect width="578.41" height="71.32" fill="white" transform="translate(0.794922)"/>
</clipPath>
</defs>
</svg>
