<svg width="779" height="514" viewBox="0 0 779 514" fill="none" xmlns="http://www.w3.org/2000/svg">
<path d="M753.092 5.91932C756.557 5.09976 755.962 -0.00012207 752.401 -0.00012207H426.001C424.755 -0.00012207 423.639 0.77027 423.197 1.93535L236.968 492.6C235.729 495.865 240.123 498.255 242.191 495.441L569.357 50.1132C569.778 49.5392 570.391 49.1339 571.084 48.97L753.092 5.91932Z" fill="#FFF5D9"/>
<path d="M11.9665 40.2288C9.10949 38.777 10.2135 34.4583 13.4167 34.5557L404.273 46.4367C406.334 46.4993 407.719 48.5749 406.986 50.5023L347.438 206.981C346.804 208.647 344.865 209.396 343.275 208.588L11.9665 40.2288Z" fill="#FFF5D9"/>
</svg>
