<svg width="1000" height="1000" viewBox="0 0 1000 1000" fill="none" xmlns="http://www.w3.org/2000/svg">
<rect width="1000" height="1000" rx="500" fill="#FFF5D9" fill-opacity="0.4"/>
<path d="M405.666 557.49C397.59 564.769 395.847 565.635 388.35 572.594C387.322 573.549 386.784 575.252 386.465 576.711C386.134 578.224 386.312 579.855 386.312 581.433C386.306 634.374 386.294 687.315 386.318 740.256C386.318 743.608 386.477 761.435 386.784 764.775L307 765C307.142 734.579 307.095 685.879 307.095 655.458C307.095 555.698 307.077 423.904 307.059 324.144L386.377 323.492C386.377 385.717 386.377 479.977 386.383 542.208C386.383 544.29 386.383 546.373 386.383 549.855C388.952 547.529 390.447 546.343 391.753 544.967C408.868 526.968 425.959 508.951 443.05 490.934C458.516 474.632 474.461 458.757 489.331 441.926C506.411 422.599 519.833 400.779 529.049 376.51C529.746 374.682 530.343 372.82 531.176 370.435C528.594 368.922 526.119 367.433 523.602 366.003C507.066 356.583 492.155 345.038 479.134 331.127C470.84 322.269 463.957 312.439 460.495 300.598C456.189 285.874 456.963 271.12 462.28 256.965C466.007 247.052 471.029 237.578 476.056 228.223C479.873 221.116 484.57 214.483 488.93 207.667C493.431 200.631 497.383 193.411 496.71 183C499.794 186.055 502.257 187.77 503.728 190.119C506.009 193.755 508.313 197.635 509.382 201.735C513.594 217.841 519.933 233.135 526.225 248.464C528.057 252.925 529.498 257.541 531.979 262.02C532.641 257.855 533.303 253.691 533.97 249.526C534.224 249.467 534.484 249.408 534.738 249.354C535.477 252.931 536.268 256.497 536.948 260.086C541.414 283.661 539.021 306.845 533.131 329.875C531.276 337.118 530.024 344.51 528.393 352.329C524.252 348.42 523.005 343.68 522.952 338.791C522.864 330.705 523.206 322.608 523.596 314.522C524.063 304.834 523.502 295.259 521.02 285.732C518.427 303.001 515.833 320.276 513.163 338.014C509.713 334.591 507.391 330.563 505.318 326.398C498.228 312.149 493.951 296.962 491.145 281.389C488.906 268.996 487.417 256.461 485.385 242.585C484.965 248.654 484.434 253.4 484.351 258.152C484.044 276.797 485.733 295.206 490.879 313.223C494.376 325.449 500.119 336.312 509.63 344.86C518.108 352.477 526.804 359.845 535.819 367.694C538.336 362.693 538.862 357.769 539.199 353.047C539.848 344.018 539.518 334.917 540.067 325.87C540.422 320.009 540.983 314.012 542.566 308.394C546.459 294.535 551.28 280.944 555.161 267.086C557.654 258.193 559.616 249.087 560.992 239.951C563.208 225.239 559.45 212.152 548.663 201.485C548.255 201.082 547.96 200.56 548.102 199.344C550.022 200.75 552.007 202.073 553.856 203.568C571.39 217.717 580.275 236.522 583.022 258.561C586.549 286.835 581.132 313.561 568.98 339.082C560.797 356.256 550.282 371.983 539.151 387.324C538.525 388.191 537.952 389.098 538.058 390.682C541.089 388.315 544.043 385.847 547.156 383.593C557.513 376.088 567.863 368.578 578.355 361.275C580.907 359.501 582.757 357.573 583.808 354.619C584.996 351.279 586.431 348.016 587.973 344.825C593.485 333.446 601.785 324.559 613.04 318.971C620.933 315.05 629.091 311.229 637.563 309.022C653.26 304.935 664.538 295.823 672.549 282.054C673.033 281.223 673.647 280.476 674.374 279.437C674.557 285.886 669.831 297.626 662.375 306.228C655.983 313.614 648.575 320.11 642.165 326.452C654.814 322.614 668.384 318.496 682.663 314.166C683.07 313.252 683.691 311.36 684.695 309.711C688.092 304.14 695.412 302.805 700.658 306.679C705.478 310.239 706.518 317.174 702.95 321.961C699.204 326.986 691.418 327.846 686.704 323.699C685.546 322.679 684.583 321.433 683.171 319.902C676.844 321.664 670.245 322.981 664.077 325.402C659.611 327.152 655.121 329.744 651.676 333.049C642.224 342.102 631.295 348.408 619.142 352.833C613.235 354.987 607.374 357.271 601.425 359.312C587.873 363.957 575.626 370.951 564.507 379.933C554.128 388.315 543.883 396.876 533.58 405.359C533.817 405.75 534.059 406.142 534.295 406.534C536.327 405.525 538.372 404.528 540.398 403.502C566.8 390.083 594.176 379.28 623.124 372.82C640.481 368.946 658.021 367.041 675.839 368.614C696.428 370.435 713.625 378.746 726.664 395.108C727.957 396.727 729.086 398.483 731 401.183C729.399 400.34 728.844 400.198 728.507 399.848C714.5 385.195 697.007 381.588 677.688 383.462C663.078 384.88 649.266 389.395 635.466 394.004C632.854 394.876 630.261 395.802 627.697 396.793C619.934 399.794 612.142 401.426 603.593 400.785C588.582 399.658 573.883 403.069 558.239 405.656C560.207 408.539 561.713 411.202 563.657 413.486C567.615 418.137 571.703 422.693 575.927 427.101C584.558 436.101 594.897 442.359 606.795 446.043C629.233 452.99 652.267 454.23 675.485 453.714C675.556 453.317 675.632 452.925 675.703 452.528C673.707 452.225 671.722 451.857 669.719 451.626C650.548 449.413 631.584 446.216 613.341 439.619C605.159 436.658 597.42 432.838 590.714 427.155C590.023 426.567 589.426 425.861 587.725 424.135C610.795 427.362 632.281 425.161 653.774 421.904C648.362 419.514 642.62 418.701 636.889 418.553C629.629 418.369 622.35 419.004 615.084 418.998C607.835 418.986 600.551 418.998 593.355 418.28C587.654 417.71 582.432 415.278 577.581 410.87C578.68 410.55 579.318 410.188 579.95 410.206C593.024 410.621 605.785 408.272 618.581 406.006C637.013 402.743 655.357 402.316 673.299 408.889C676.064 409.903 678.811 411.001 681.481 412.229C691.749 416.945 701.987 421.738 712.597 426.668H687.371C694.254 430.269 698.702 436.255 703.688 441.671C710.417 448.986 718.192 454.978 726.965 459.641C727.78 460.074 728.572 460.566 730.705 461.8C727.922 462.085 726.486 462.275 725.045 462.375C714.943 463.075 705.337 465.431 696.186 470.01C683.496 476.358 669.92 479.105 655.717 479.218C640.753 479.336 626.976 475.445 614.162 467.845C593.568 455.63 575.951 440.135 562.328 420.249C561.56 419.128 560.697 418.06 559.693 416.714C558.18 417.313 556.727 417.805 555.345 418.452C532.972 428.887 513.24 442.816 496.68 461.42C484.889 474.661 472.146 487.048 459.828 499.821C458.611 501.084 457.417 502.372 455.946 503.926C457.234 505.765 458.375 507.545 459.662 509.218C482.85 539.396 505.938 569.657 529.339 599.675C536.115 608.366 544.149 616.067 550.991 624.716C569.712 648.369 650.714 748.763 666.617 765C636.866 765 584.523 764.359 564.253 764.359C555.959 754.879 427.317 586.155 405.63 557.49H405.666Z" fill="#FFF5D9"/>
</svg>
