<svg width="1000" height="1000" viewBox="0 0 1000 1000" fill="none" xmlns="http://www.w3.org/2000/svg">
<rect x="20" y="20" width="960" height="960" rx="480" fill="url(#paint0_linear_1955_10335)" fill-opacity="0.4"/>
<rect x="20" y="20" width="960" height="960" rx="480" stroke="url(#paint1_linear_1955_10335)" stroke-width="40"/>
<path d="M542.456 364.853C545.899 363.941 625.589 334.618 683.085 319.231C683.535 319.111 684.206 318.408 684.642 319.465C685.048 320.44 684.364 320.662 683.807 321.016C666.395 332.269 522.297 406.948 510.86 411.499C510.575 411.613 510.296 411.752 509.948 411.911C510.455 412.322 510.86 411.999 511.246 411.892C546.626 402.442 637.103 368.435 645.85 366.125C646.401 365.979 647.11 365.365 647.566 366.422C648.002 367.435 647.762 367.967 646.8 368.568C627.622 380.568 519.208 443.627 483.809 452.912C483.606 452.962 483.41 453.07 483.201 453.089C482.536 453.171 482.302 453.507 482.448 454.165C482.6 454.874 483.074 454.728 483.549 454.646C490.999 454.646 560 438.399 573.551 436.126C574.583 435.956 575.615 435.797 576.691 435.753C553.652 452.703 512.531 468.627 486.979 480.893C487.011 481.438 487.486 481.514 487.802 481.716C501.657 490.387 515.088 499.634 527.753 510.008C543.696 523.065 555.886 539.066 565.931 556.927C576.153 575.104 584.716 594.004 591.552 613.7C591.647 613.979 591.906 614.245 591.628 614.808C590.058 614.061 588.482 613.321 586.912 612.555C578.21 608.308 569.595 603.877 560.583 600.289C546.956 594.865 532.854 591.396 518.252 589.921C510.683 589.155 503.113 588.985 495.511 589.092C480.131 589.314 464.808 588.466 449.909 584.421C425.738 577.851 408.845 562.731 398.832 539.819C390.243 520.166 384.458 499.736 381.363 478.52C379.869 468.292 378.977 458.013 378.54 447.69C378.084 437 377.673 426.31 377.255 415.62C377.23 414.987 376.933 414.271 377.85 413.873C378.705 413.506 379.236 413.911 379.825 414.392C388.452 421.48 403.433 434.88 412.022 442.006C413.098 442.899 413.68 442.892 414.687 441.88C427.978 428.55 573.645 295.118 593.28 289.041C602.76 286.106 727.327 270.344 727.536 271.021C727.77 271.774 727.112 271.92 726.707 272.16C721.491 275.236 548.468 362.061 543.095 364.207C542.854 364.302 542.633 364.435 542.405 364.555C542.424 364.656 542.437 364.751 542.456 364.853Z" fill="url(#paint2_linear_1955_10335)"/>
<path d="M376.237 671.182C379.712 667.169 381.788 662.403 383.61 657.511C387.054 648.257 387.68 638.618 387.459 628.871C387.13 614.383 383.788 600.522 378.667 587.047C372.23 570.078 363.509 554.293 353.743 539.052C340.401 518.222 325.381 498.583 310.963 478.525C301.646 465.563 292.368 452.563 284.456 438.676C278.747 428.651 274.981 417.91 273.576 406.422C271.88 392.517 273.969 379.099 279.317 366.212C286.475 348.978 298.419 336.079 315.185 327.819C327.565 321.724 340.704 319.452 354.464 320.642C366.8 321.711 379.066 323.3 391.326 325.034C400.364 326.313 409.409 325.629 418.39 324.066C429.15 322.192 439.523 318.806 450.017 315.914C475.486 308.907 500.93 301.806 526.392 294.793C539.836 291.09 553.298 287.445 566.779 283.894C572.381 282.419 578.159 281.748 583.843 280.679C584.349 280.584 584.742 280.47 584.894 281.185C585.058 281.957 584.653 282.198 584.046 282.419C580.128 283.818 576.223 285.236 572.311 286.641C524.975 303.635 477.657 320.692 430.282 337.592C415.909 342.718 403.332 350.421 393.047 361.763C387.104 368.32 382.3 375.656 378.028 383.384C372.42 393.523 366.363 403.403 360.059 413.125C351.027 427.049 346.92 442.309 347.939 458.892C348.686 470.968 352.224 482.354 356.812 493.45C363.604 509.874 372.041 525.476 380.693 540.963C386.471 551.305 392.307 561.616 398.098 571.952C399.491 574.439 400.06 577.161 400.079 579.996C400.124 586.218 400.149 592.439 400.174 598.661C400.269 622.332 400.32 646.01 400.465 669.682C400.573 687.024 401.143 704.366 401.13 721.708C401.13 723.341 401.136 724.98 401.256 726.607C401.339 727.753 400.883 728 399.813 727.993C392.009 727.955 384.205 727.974 376.401 727.974C366.433 727.974 356.471 727.949 346.502 728C345.186 728.006 344.704 727.784 344.723 726.31C345.097 692.252 345.312 658.188 344.913 624.13C344.654 602.041 343.996 579.964 344.059 557.869C344.065 554.976 344.363 553.704 345.458 552.09C347.622 555.546 349.47 559.116 351.154 562.787C358.281 578.331 365.838 593.686 372.452 609.465C375.731 617.275 379.003 625.086 380.591 633.491C382.908 645.757 381.693 657.599 376.731 669.049C376.458 669.675 376.231 670.315 375.984 670.948C375.781 671.106 375.629 671.27 375.825 671.536C375.958 671.422 376.098 671.302 376.231 671.188L376.237 671.182ZM355.388 343.421C349.983 343.364 345.401 347.687 345.331 352.908C345.255 358.522 349.717 363.2 355.255 363.314C360.528 363.421 365.23 358.839 365.281 353.541C365.338 347.845 361.072 343.484 355.382 343.421H355.388Z" fill="url(#paint3_linear_1955_10335)"/>
<path d="M719.799 727.081H718.28C685.216 727.081 652.146 727.081 619.082 727.106C617.873 727.106 617.057 726.758 616.24 725.847C602.366 710.391 588.163 695.232 573.999 680.042C557.283 662.117 540.593 644.161 524.339 625.813C517.453 618.04 510.611 610.23 503.731 602.451C503.263 601.92 502.642 601.515 502.092 601.053C502.104 600.888 502.117 600.723 502.13 600.559C504.826 600.559 507.529 600.508 510.225 600.565C535.498 601.135 558.473 609.489 580.423 621.294C600.917 632.319 619.62 645.984 637.779 660.427C654.684 673.877 670.925 688.124 687.527 701.935C697.976 710.631 708.552 719.157 719.793 727.075L719.799 727.081Z" fill="url(#paint4_linear_1955_10335)"/>
<defs>
<linearGradient id="paint0_linear_1955_10335" x1="500" y1="0" x2="500" y2="1000" gradientUnits="userSpaceOnUse">
<stop stop-color="#FFF5D9"/>
<stop offset="1" stop-opacity="0"/>
</linearGradient>
<linearGradient id="paint1_linear_1955_10335" x1="782.5" y1="73.5" x2="185.5" y2="894.5" gradientUnits="userSpaceOnUse">
<stop stop-color="#FFF5D9"/>
<stop offset="1" stop-color="#C9C1A9"/>
</linearGradient>
<linearGradient id="paint2_linear_1955_10335" x1="656.606" y1="314.634" x2="320.029" y2="729.296" gradientUnits="userSpaceOnUse">
<stop stop-color="#FFF5D9"/>
<stop offset="1" stop-color="#999382"/>
</linearGradient>
<linearGradient id="paint3_linear_1955_10335" x1="521.743" y1="337.389" x2="80.659" y2="709.146" gradientUnits="userSpaceOnUse">
<stop stop-color="#FFF5D9"/>
<stop offset="1" stop-color="#999382"/>
</linearGradient>
<linearGradient id="paint4_linear_1955_10335" x1="675.699" y1="616.601" x2="576.792" y2="822.259" gradientUnits="userSpaceOnUse">
<stop stop-color="#FFF5D9"/>
<stop offset="1" stop-color="#999382"/>
</linearGradient>
</defs>
</svg>
