<svg width="1000" height="1000" viewBox="0 0 1000 1000" fill="none" xmlns="http://www.w3.org/2000/svg">
<rect width="1000" height="1000" rx="500" fill="#FFF5D9" fill-opacity="0.4"/>
<path d="M542.456 365.853C545.899 364.941 625.589 335.618 683.085 320.231C683.535 320.111 684.206 319.408 684.642 320.465C685.048 321.44 684.364 321.662 683.807 322.016C666.395 333.269 522.297 407.948 510.86 412.499C510.575 412.613 510.296 412.752 509.948 412.911C510.455 413.322 510.86 412.999 511.246 412.892C546.626 403.442 637.103 369.435 645.85 367.125C646.401 366.979 647.11 366.365 647.566 367.422C648.002 368.435 647.762 368.967 646.8 369.568C627.622 381.568 519.208 444.627 483.809 453.912C483.606 453.962 483.41 454.07 483.201 454.089C482.536 454.171 482.302 454.507 482.448 455.165C482.6 455.874 483.074 455.728 483.549 455.646C490.999 455.646 560 439.399 573.551 437.126C574.583 436.956 575.615 436.797 576.691 436.753C553.652 453.703 512.531 469.627 486.979 481.893C487.011 482.438 487.486 482.514 487.802 482.716C501.657 491.387 515.088 500.634 527.753 511.008C543.696 524.065 555.886 540.066 565.931 557.927C576.153 576.104 584.716 595.004 591.552 614.7C591.647 614.979 591.906 615.245 591.628 615.808C590.058 615.061 588.482 614.321 586.912 613.555C578.21 609.308 569.595 604.877 560.583 601.289C546.956 595.865 532.854 592.396 518.252 590.921C510.683 590.155 503.113 589.985 495.511 590.092C480.131 590.314 464.808 589.466 449.909 585.421C425.738 578.851 408.845 563.731 398.832 540.819C390.243 521.166 384.458 500.736 381.363 479.52C379.869 469.292 378.977 459.013 378.54 448.69C378.084 438 377.673 427.31 377.255 416.62C377.23 415.987 376.933 415.271 377.85 414.873C378.705 414.506 379.236 414.911 379.825 415.392C388.452 422.48 403.433 435.88 412.022 443.006C413.098 443.899 413.68 443.892 414.687 442.88C427.978 429.55 573.645 296.118 593.28 290.041C602.76 287.106 727.327 271.344 727.536 272.021C727.77 272.774 727.112 272.92 726.707 273.16C721.491 276.236 548.468 363.061 543.095 365.207C542.854 365.302 542.633 365.435 542.405 365.555C542.424 365.656 542.437 365.751 542.456 365.853Z" fill="#FFF5D9"/>
<path d="M376.237 672.182C379.712 668.169 381.788 663.403 383.61 658.511C387.054 649.257 387.68 639.618 387.459 629.871C387.13 615.383 383.788 601.522 378.667 588.047C372.23 571.078 363.509 555.293 353.743 540.052C340.401 519.222 325.381 499.583 310.963 479.525C301.646 466.563 292.368 453.563 284.456 439.676C278.747 429.651 274.981 418.91 273.576 407.422C271.88 393.517 273.969 380.099 279.317 367.212C286.475 349.978 298.419 337.079 315.185 328.819C327.565 322.724 340.704 320.452 354.464 321.642C366.8 322.711 379.066 324.3 391.326 326.034C400.364 327.313 409.409 326.629 418.39 325.066C429.15 323.192 439.523 319.806 450.017 316.914C475.486 309.907 500.93 302.806 526.392 295.793C539.836 292.09 553.298 288.445 566.779 284.894C572.381 283.419 578.159 282.748 583.843 281.679C584.349 281.584 584.742 281.47 584.894 282.185C585.058 282.957 584.653 283.198 584.046 283.419C580.128 284.818 576.223 286.236 572.311 287.641C524.975 304.635 477.657 321.692 430.282 338.592C415.909 343.718 403.332 351.421 393.047 362.763C387.104 369.32 382.3 376.656 378.028 384.384C372.42 394.523 366.363 404.403 360.059 414.125C351.027 428.049 346.92 443.309 347.939 459.892C348.686 471.968 352.224 483.354 356.812 494.45C363.604 510.874 372.041 526.476 380.693 541.963C386.471 552.305 392.307 562.616 398.098 572.952C399.491 575.439 400.06 578.161 400.079 580.996C400.124 587.218 400.149 593.439 400.174 599.661C400.269 623.332 400.32 647.01 400.465 670.682C400.573 688.024 401.143 705.366 401.13 722.708C401.13 724.341 401.136 725.98 401.256 727.607C401.339 728.753 400.883 729 399.813 728.993C392.009 728.955 384.205 728.974 376.401 728.974C366.433 728.974 356.471 728.949 346.502 729C345.186 729.006 344.704 728.784 344.723 727.31C345.097 693.252 345.312 659.188 344.913 625.13C344.654 603.041 343.996 580.964 344.059 558.869C344.065 555.976 344.363 554.704 345.458 553.09C347.622 556.546 349.47 560.116 351.154 563.787C358.281 579.331 365.838 594.686 372.452 610.465C375.731 618.275 379.003 626.086 380.591 634.491C382.908 646.757 381.693 658.599 376.731 670.049C376.458 670.675 376.231 671.315 375.984 671.948C375.781 672.106 375.629 672.27 375.825 672.536C375.958 672.422 376.098 672.302 376.231 672.188L376.237 672.182ZM355.388 344.421C349.983 344.364 345.401 348.687 345.331 353.908C345.255 359.522 349.717 364.2 355.255 364.314C360.528 364.421 365.23 359.839 365.281 354.541C365.338 348.845 361.072 344.484 355.382 344.421H355.388Z" fill="#FFF5D9"/>
<path d="M719.799 728.081H718.28C685.216 728.081 652.146 728.081 619.082 728.106C617.873 728.106 617.057 727.758 616.24 726.847C602.366 711.391 588.163 696.232 573.999 681.042C557.283 663.117 540.593 645.161 524.339 626.813C517.453 619.04 510.611 611.23 503.731 603.451C503.263 602.92 502.642 602.515 502.092 602.053C502.104 601.888 502.117 601.723 502.13 601.559C504.826 601.559 507.529 601.508 510.225 601.565C535.498 602.135 558.473 610.489 580.423 622.294C600.917 633.319 619.62 646.984 637.779 661.427C654.684 674.877 670.925 689.124 687.527 702.935C697.976 711.631 708.552 720.157 719.793 728.075L719.799 728.081Z" fill="#FFF5D9"/>
</svg>
