<svg width="1000" height="1000" viewBox="0 0 1000 1000" fill="none" xmlns="http://www.w3.org/2000/svg">
<rect x="20" y="20" width="960" height="960" rx="480" fill="url(#paint0_linear_1955_10358)" fill-opacity="0.4"/>
<rect x="20" y="20" width="960" height="960" rx="480" stroke="url(#paint1_linear_1955_10358)" stroke-width="40"/>
<path d="M490.16 297.865C488.297 295.209 486.379 292.591 484.571 289.896C478.086 280.21 472.519 270.137 470.949 258.304C469.5 247.395 470.556 236.763 474.249 226.414C476.262 220.768 479.457 215.832 483.93 211.852C488.032 208.205 492.079 204.414 496.612 201.37C502.56 197.368 507.735 192.763 511.716 186C518.538 193.383 527.073 193.981 536.101 193.411C544.107 192.907 551.802 194.274 558.066 199.903C564.589 205.77 567.099 213.501 567.757 221.964C568.597 232.762 566.176 243.04 562.417 253.041C560.83 257.258 559.155 261.475 557.126 265.494C547.916 283.73 544.25 303.334 543.205 323.458C542.608 335.003 543.117 346.609 543.161 358.187C543.172 361.132 543.366 364.076 543.377 367.02C543.393 372.489 541.552 377.132 536.632 379.899C534.36 381.178 533.713 382.866 533.824 385.174C534.454 398.047 530.645 409.897 525.995 421.697C521.324 433.552 517.388 445.695 513.164 457.722C512.794 458.773 512.655 459.902 513.258 461.712C515.519 460.068 518.068 458.712 519.992 456.742C531.292 445.186 544.339 435.81 556.96 425.826C569.548 415.869 581.042 404.512 592.806 393.553C594.515 391.965 595.526 389.264 596.118 386.89C601.635 364.729 600.917 342.945 591.712 321.753C591.247 320.679 590.905 319.556 590.49 318.41C604.56 320.901 619.26 343.321 622.184 366.932C625.137 366.284 626.441 363.749 628.227 361.912C635.469 354.462 642.225 346.476 649.948 339.569C667.855 323.563 689.36 315.034 712.795 310.938C725.008 308.802 737.319 308.049 749.692 308.044C751.754 308.044 753.816 308.21 756 308.896C719.402 320.092 683.395 332.296 652.021 355.547C653.37 355.392 654.741 355.342 656.068 355.071C673.566 351.479 690.389 353.012 706.25 361.713C711.712 364.707 716.527 368.537 721.326 373.457C712.093 373.247 703.723 372.799 695.359 372.909C674.66 373.186 655.051 378.527 636.171 386.635C626.817 390.653 617.718 395.275 608.601 399.813C605.643 401.285 602.73 403.067 600.231 405.22C583.115 419.981 564.656 432.938 546.329 446.093C536.151 453.399 526.653 461.662 516.84 469.477C515.619 470.451 514.314 471.315 512.816 472.399C520.334 482.212 527.195 491.272 534.172 500.244C581.982 561.756 723.736 726.067 723.736 730.063H638.527C638.527 726.344 594.128 671.662 585.194 659.967C571.964 642.66 558.702 625.376 545.306 608.202C543.04 605.296 542.266 602.833 543.576 599.17C545.682 593.281 547.108 587.137 548.734 581.082C549.126 579.627 549.187 578.077 549.574 575.321C542.21 579.35 535.748 582.881 528.505 586.838C520.246 576.168 511.771 565.237 503.312 554.284C494.931 543.436 486.561 532.572 477.904 521.347C476.743 523.069 475.737 524.259 475.057 525.609C469.169 537.353 463.22 549.065 457.537 560.903C452.362 571.69 447.558 582.654 442.489 593.497C438.602 601.815 441.405 610.432 441.853 619.692C442.091 624.59 441.681 629.521 441.969 634.414C442.207 638.427 441.007 641.393 438.154 644.31C429.613 653.043 417.367 662.806 411.795 673.721C409.843 677.551 408.19 681.569 406.792 685.637C405.719 688.753 405.255 692.073 404.984 695.582C415.93 674.119 430.392 655.501 448.664 639.954C466.935 624.418 486.395 610.803 509.991 603.94C506.895 606.879 503.97 610.04 500.664 612.724C486.661 624.103 472.795 635.681 458.383 646.524C444.722 656.801 433.029 668.673 423.874 683.13C419.938 689.339 415.488 695.223 411.623 701.615C439.581 691.276 465.454 677.672 486.965 656.658C468.594 669.509 448.454 678.718 426.932 685.615C427.927 684.679 428.855 683.655 429.928 682.82C443.517 672.177 457.2 661.644 470.717 650.902C484.881 639.65 497.74 626.992 510.096 613.792C516.929 606.492 523.944 599.341 531.192 592.462C534.852 588.991 539.225 586.274 544.173 583.805C543.305 586.866 542.503 589.943 541.552 592.976C530.894 626.948 512.114 655.678 485.566 679.294C471.889 691.459 460.976 700.674 442.815 704.543C441.925 704.731 441.112 705.323 440.167 705.772C440.023 711.173 440.167 705.772 440.051 714.655C440.106 718.141 440.133 727.451 440.133 730.423C413.26 730.45 422.951 730.528 396.083 730.318C391.467 730.284 392.224 731.563 389.753 735.448C385.651 741.902 381.289 748.2 376.938 754.493C356.676 783.804 329.504 803.59 295.471 814.15C289.827 815.899 285.774 815.014 281.766 810.885C276.586 805.555 274.878 802.168 275.591 796.069C279.428 795.405 283.436 794.774 287.422 793.999C319.619 787.734 347.87 773.858 371.083 750.347C376.474 744.89 379.675 739.057 382.162 730.661C382.737 715.822 383.279 691.714 383.29 688.199C383.362 662.081 383.229 635.969 383.362 609.851C383.456 591.089 376.341 575.559 363.211 562.475C350.805 550.116 335.967 541.399 320.52 533.573C305.655 526.041 290.678 518.713 277.039 509.022C275.337 507.81 273.695 506.509 271.572 504.915C293.509 503.686 340.616 517.335 373.306 554.987C373.527 554.743 373.986 554.433 373.942 554.256C371.636 545.539 369.187 536.861 366.992 528.116C366.268 525.233 364.156 524.74 361.906 523.965C346.261 518.586 331.411 511.595 317.85 502.021C297.627 487.752 283.11 468.713 272.235 446.758C258.193 418.404 249.441 388.351 244.394 357.18C243.471 351.479 242.807 345.74 243.051 339.464C244.975 341.312 247.003 343.072 248.811 345.031C257.773 354.756 265.076 365.709 271.594 377.138C289.523 408.602 310.121 438.173 333.319 465.974C340.224 474.248 346.598 482.965 352.829 491.92C340.268 484.171 328.703 475.139 317.463 465.669C306.03 456.034 295.825 445.197 286.487 433.508C286.161 433.718 285.835 433.934 285.509 434.144C286.57 435.805 287.604 437.487 288.699 439.125C304.411 462.653 323.451 483.109 345.376 500.947C351.408 505.856 357.052 511.247 363.592 517.047C363.228 515.044 363.145 513.903 362.807 512.841C359.253 501.628 355.665 490.42 352.071 479.218C348.08 466.76 342.02 455.336 334.225 444.903C325.419 433.115 316.186 421.647 307.296 409.919C299.358 399.442 291.618 388.816 283.834 378.222C282.568 376.501 281.523 374.614 279.699 371.73C281.866 372.704 283.043 373.103 284.088 373.728C301.182 383.89 315.268 397.477 327.685 412.819C341.462 429.838 353.569 448.008 360.004 469.156C363.703 481.316 366.329 493.863 368.585 506.393C371.354 521.763 377.419 536.009 382.82 550.858C382.997 549.696 383.334 548.533 383.334 547.371C383.351 493.962 383.362 371.371 383.274 317.956C404.945 317.956 424.516 317.48 442.046 317.48C441.858 329.258 441.925 408.048 441.919 419.832C441.908 469.51 441.914 519.189 441.914 568.868C441.914 570.406 441.914 571.95 441.914 573.489L443.058 573.91C443.932 572.116 439.912 570.356 440.681 568.524C447.072 553.321 453.943 538.35 462.38 524.142C470.717 510.107 480.148 496.873 490.669 484.376C494.152 480.236 497.22 475.493 499.382 470.551C506.618 454.019 513.368 437.277 520.29 420.612C525.426 408.242 526.924 395.286 526.698 381.676C519.312 378.134 518.106 371.614 518.554 364.314C519.472 349.177 515.884 335.185 508.244 322.074C505.491 317.347 502.008 314.038 496.745 312.826C486.639 310.501 476.533 308.176 466.371 306.118C455.027 303.815 443.738 301.391 433.074 296.72C426.738 293.947 420.801 290.56 416.079 285.374C404.459 272.606 407.759 253.987 423.15 246.134C432.576 241.324 442.433 241.645 452.379 244.296C453.7 244.65 454.955 245.242 456.271 245.624C461.899 247.268 465.559 249.764 465.99 256.793C466.327 262.223 469.141 267.674 471.601 272.749C476.162 282.147 482.625 290.327 489.11 298.441C489.464 298.242 489.812 298.037 490.166 297.838L490.16 297.865ZM523.618 362.144C524.177 362.288 524.74 362.432 525.299 362.576C526.979 352.232 528.66 341.893 530.335 331.549C530.534 331.582 530.728 331.61 530.927 331.643C531.623 336.492 532.32 341.34 533.017 346.188C533.298 315.145 533.221 284.167 521.396 254.756C521.213 256.932 521.523 259.04 521.705 261.166C524.237 290.516 524.951 319.899 523.646 349.337C523.458 353.599 523.618 357.877 523.618 362.15V362.144Z" fill="url(#paint2_linear_1955_10358)"/>
<defs>
<linearGradient id="paint0_linear_1955_10358" x1="500" y1="0" x2="500" y2="1000" gradientUnits="userSpaceOnUse">
<stop stop-color="#FFF5D9"/>
<stop offset="1" stop-opacity="0"/>
</linearGradient>
<linearGradient id="paint1_linear_1955_10358" x1="782.5" y1="73.5" x2="185.5" y2="894.5" gradientUnits="userSpaceOnUse">
<stop stop-color="#FFF5D9"/>
<stop offset="1" stop-color="#C9C1A9"/>
</linearGradient>
<linearGradient id="paint2_linear_1955_10358" x1="654.5" y1="249" x2="152.53" y2="992.354" gradientUnits="userSpaceOnUse">
<stop stop-color="#FFF5D9"/>
<stop offset="1" stop-color="#999382"/>
</linearGradient>
</defs>
</svg>
